<svg width="922" height="614" xmlns="http://www.w3.org/2000/svg" xmlns:xlink="http://www.w3.org/1999/xlink" xml:space="preserve" overflow="hidden"><defs><clipPath id="clip0"><rect x="453" y="1238" width="922" height="614"/></clipPath></defs><g clip-path="url(#clip0)" transform="translate(-453 -1238)"><path d="M15.2172 0.630752C11.1317-1.49406 5.06723 1.93984 1.96633 8.07706-1.24043 14.44-0.446766 21.1461 3.77634 23.335 4.63352 23.7858 5.5754 24.0004 6.59138 24.0004 10.3804 24.0004 14.582 20.7386 17.0374 15.8779 20.2442 9.52568 19.44 2.83033 15.2172 0.630752ZM14.6561 14.6547C12.2642 19.3866 7.75559 22.3693 4.99347 20.9207 2.19925 19.4721 1.90281 14.161 4.33709 9.32175 6.31648 5.40558 9.62911 2.68007 12.4018 2.68007 12.9841 2.68007 13.5131 2.80887 13.9895 3.05573 16.794 4.50399 17.0904 9.81548 14.6561 14.6547Z" fill="#FFFFFF" fill-rule="evenodd" transform="matrix(-1 0 0 1 485 1670)"/><path d="M15.2189 0.662104C11.1436-1.56155 5.06815 2.01426 1.96655 8.41732-1.24057 15.0436-0.446816 22.0167 3.77676 24.3074 4.63404 24.7769 5.57602 25.0001 6.58153 25.0001 10.3816 25.0001 14.573 21.6031 17.0288 16.5522 20.2465 9.91479 19.4421 2.94165 15.2189 0.662104ZM14.6577 15.256C12.2655 20.1839 7.75645 23.2906 4.99368 21.782 2.19949 20.2733 1.90303 14.7421 4.34816 9.69123 6.32742 5.61242 9.64077 2.77398 12.4138 2.77398 12.9961 2.77398 13.5252 2.89694 14.0016 3.16521 16.7958 4.67385 17.0923 10.2162 14.6577 15.256Z" fill="#FFFFFF" fill-rule="evenodd" transform="matrix(-1 0 0 1 717 1804)"/><path d="M27.643 0C27.643 0 0.912294 89.9578 0 100.178L134 174C134 174 107.074 77.9533 87.1105 45.3143 77.4871 29.5786 56.9259 13.1833 27.643 0Z" fill="#FFFFFF" fill-rule="evenodd" transform="matrix(-1 0 0 1 1050 1467)"/><path d="M49.5838 0C49.5838 0 5.83526 52.0241 0 75.2809 0 75.2809 89.141 128.399 97.6845 133 97.6845 133 126.205 44.5208 128 34.4302 128 34.4302 61.2758 2.19785 49.5838 0Z" fill="#FFFFFF" fill-rule="evenodd" transform="matrix(-1 0 0 1 1163 1424)"/><path d="M47.5055 7.38915C35.9215 11.9762 11.9847 21.3991 4.86101 31.6117 1.94859 35.777 0 50.8147 0 50.8147L41.5294 76.0003C46.8341 57.7601 95.0002 0 95.0002 0 74.6793 0.0108218 58.6784 2.9641 47.5055 7.38915Z" fill="#FFFFFF" fill-rule="evenodd" transform="matrix(-1 0 0 1 1221 1416)"/><path d="M301 104.914C301 104.914 193.061 14.5865 175.636 0 175.636 0 120.145 40.3757 102.817 49.9518 85.4787 59.5388 19.1469 94.0799 0 102.062 0 102.062 39.7448 204.264 49.784 244 49.784 244 161.438 202.584 206.132 173.953 235.329 155.245 287.777 120.444 301 104.914Z" fill="#FFFFFF" fill-rule="evenodd" transform="matrix(-1 0 0 1 948 1400)"/><path d="M921.927 438.226C921.591 435.531 918.418 426.052 914.497 423.606 911.367 421.648 906.624 417.622 906.071 416.508 905.996 416.281 905.855 415.805 905.671 415.101 904.025 409.031 898.988 390.581 890.346 381.946L886.1 377.693C870.786 362.306 830.097 321.435 819.516 313.969 813.863 309.976 773.812 277.946 735.094 246.966 693.722 213.865 650.932 179.638 641.737 172.886 641.25 172.507 593.055 135.002 566.304 119.149 539.478 103.242 470.846 64.6119 457.146 57.5458 443.521 50.5011 416.5 41.3683 407.034 39.9615 404.413 39.5614 400.937 39.1825 397.136 38.7712 387.984 37.7758 376.591 36.5313 371.945 34.4755 369.02 33.1553 300.14 2.13165 278.717 0.0649452L277.981 0 277.309 0.313902C276.389 0.746509 184.549 43.5974 155.393 59.1687 126.271 74.7292 54.2711 126.41 40.1268 136.614 27.6722 145.606 23.2531 151.72 23.2531 160.02 23.2531 162.801 23.1448 169.575 23.0043 176.608L5.14522 189.377C4.98271 189.474 0.747877 192.223 0.249894 197.33-0.237616 202.448-0.28095 208.346 2.67589 216.732 3.54221 219.167 4.61437 221.32 5.65403 223.409 8.02586 228.148 9.8997 231.882 8.54587 237.01L8.06919 238.818 116.794 317.486 120.834 315.311C121.884 326.932 125.794 339.788 132.065 352.015 144.92 377.087 165.325 394.596 181.678 394.596 185.068 394.596 188.22 393.871 191.122 392.377L219.714 376.72 223.635 378.916C261.01 399.865 449.89 505.846 498.279 535.354L499.568 536.144 502.308 534.791C503.359 546.381 507.279 559.225 513.517 571.41 526.373 596.481 546.778 614.001 563.131 614.001 566.51 614.001 569.672 613.265 572.597 611.76L605.315 593.473 606.474 593.95C613.08 596.157 634.243 606.036 634.925 606.307 635.196 606.383 641.748 608.092 647.423 608.438L648.235 608.493C654.116 608.861 657.246 608.558 662.845 605.766 667.643 603.363 777.299 546.576 797.086 535.289 811.014 527.336 858.071 496.54 886.187 478.144 897.007 471.056 905.129 465.743 907.685 464.131 909.396 463.049 910.804 462.194 911.974 461.49 917.227 458.288 918.483 457.519 919.588 453.104 922.382 441.861 922.035 439.124 921.927 438.226ZM900.396 416.53C900.472 416.811 900.526 417.006 900.591 417.222 899.498 418.986 897.949 421.496 896.833 423.314 895.046 426.236 879.7 436.581 874.653 439.989 869.183 443.668 855.278 453.461 850.014 457.173 849.949 456.004 849.851 454.76 849.743 453.494 849.31 447.164 848.498 438.528 847.22 434.46 847.198 434.341 847.166 434.157 847.155 434.049 852.083 430.564 881.454 409.81 889.804 404.865 892.165 403.469 893.855 401.867 894.949 400.114 896.844 404.735 898.663 410.178 900.396 416.53ZM713.238 510.715C712.21 506.343 714.148 505.099 719.91 502.156L720.744 501.723C724.643 499.71 747.494 486.465 764.184 476.802 772.48 471.987 779.162 468.113 781.003 467.085 786.169 464.174 831.527 438.442 836.79 435.282L838.046 434.525C839.953 433.356 841.599 432.35 842.552 432.35 842.595 432.35 842.682 432.361 842.758 432.372 843.213 432.858 843.581 433.27 843.938 433.692 844.09 433.962 844.231 434.211 844.393 434.611 844.458 434.752 844.512 434.947 844.566 435.12 845.108 438.399 846.396 446.623 847.036 453.797 847.263 457.108 847.382 459.792 847.382 460.766 847.382 462.789 847.209 463.46 843.093 466.89 841.155 468.502 831.873 474.194 822.05 480.211 811.469 486.692 800.541 493.401 795.624 496.896 786.083 503.703 732.505 530.452 723.538 534.715 720.332 536.241 718.686 536.555 717.874 536.555 717.549 536.555 717.387 536.501 717.354 536.501L717.397 536.014C717.722 528.407 713.412 511.407 713.238 510.715ZM714.69 535.083C708.82 537.843 666.961 557.591 660.279 560.772 653.791 563.856 651.56 564.397 644.9 565.999L643.08 566.443C638.499 567.557 633.766 565.382 629.564 563.467 627.755 562.634 626.033 561.854 624.387 561.335 620.272 560.047 620.802 556.541 620.9 555.849 620.791 551.391 622.156 547.733 624.95 544.963 629.401 540.548 636.755 539.131 642.073 539.325 650.575 539.574 657.723 539.358 657.788 539.358L710.986 513.009C712.036 517.359 714.744 529.219 714.69 535.083ZM27.0546 180.439 28.441 179.443 28.4626 178.069C28.5276 174.52 28.5926 170.992 28.6468 167.919 31.8308 170.354 35.8706 174.401 37.0511 179.054 38.6321 185.319 38.6538 194.441 34.1918 201.94L26.7188 196.075C26.7946 193.272 26.9246 187.039 27.0546 180.439ZM188.556 387.551C186.498 388.601 184.18 389.131 181.668 389.131 167.285 389.131 148.895 372.846 136.939 349.526 130.235 336.455 126.368 322.701 126.054 310.788L125.924 306.34 124.733 306.989C125.188 295.801 129.043 287.598 135.607 284.233 142.57 280.651 151.917 282.621 161.924 289.708 172.191 296.991 181.819 308.764 189.043 322.853 201.747 347.611 203.534 372.889 194.458 384.294L188.556 387.551ZM199.202 381.708C205.765 368.149 203.263 344.581 191.491 321.609 184.072 307.141 174.14 295.011 163.516 287.479 152.631 279.753 142.278 277.741 134.361 281.799 126.574 285.791 122.155 295.465 121.982 308.472L118.256 310.484C118.126 303.029 118.7 290.596 122.394 286.289 128.524 279.136 136.484 273.023 153.26 276.713 172.007 280.824 182.22 292.057 191.783 307.682 195.574 313.861 210.411 350.998 211.082 369.567L211.104 370.335 215.479 372.791 199.202 381.708ZM226.299 374.155 219.736 370.465 218.317 371.244 213.79 368.701C213.227 358.454 208.754 343.164 204.119 330.157 222.14 341.281 308.912 394.725 344.197 413.835 380.998 433.757 486.193 490.209 500.066 497.665 499.514 498.346 499.005 499.061 498.539 499.797 493.244 508.302 495.16 520.984 496.883 528.126 442.633 495.511 262.689 394.542 226.299 374.155ZM569.997 606.924C567.951 607.973 565.633 608.514 563.12 608.514 548.727 608.514 530.337 592.229 518.38 568.91 511.741 555.936 507.875 542.279 507.507 530.42L507.388 527.769 506.164 527.769C506.348 515.865 510.214 507.112 517.059 503.616 524.023 500.035 533.37 502.004 543.377 509.092 553.644 516.374 563.272 528.147 570.496 542.236 583.156 566.919 584.976 592.11 575.987 603.569L569.997 606.924ZM580.741 600.918C587.196 587.327 584.662 563.856 572.932 540.981 565.514 526.513 555.571 514.383 544.958 506.852 534.084 499.136 523.72 497.113 515.803 501.171 507.951 505.196 503.543 514.957 503.424 528.093L500.142 529.749C498.507 523.819 495.518 509.806 500.857 501.236 507.897 489.939 527.478 484.106 543.16 493.185 559.048 502.394 575.066 523.538 578.683 533.493 580.102 537.388 583.015 544.195 586.091 551.391 590.878 562.612 596.326 575.337 596.867 578.811 597.485 582.804 598.362 586.591 601.34 589.426L580.741 600.918ZM914.259 451.762C913.696 454.013 913.696 454.013 909.104 456.816 907.924 457.53 906.494 458.407 904.75 459.5 902.194 461.101 894.028 466.447 883.176 473.556 855.115 491.919 808.133 522.661 794.357 530.528 775.599 541.241 668.206 596.968 660.387 600.864 654.744 603.677 652.795 603.299 648.582 603.028L647.759 602.974C642.853 602.671 636.929 601.167 636.755 601.167 636.755 601.167 636.755 601.167 636.755 601.167 635.64 600.648 615.073 591.039 608.369 588.82L604.936 587.403 603.929 587.966C601.308 585.888 600.257 582.923 599.564 578.389 598.979 574.569 593.705 562.244 588.604 550.319 588.008 548.934 587.434 547.582 586.86 546.24 591.29 549.161 598.611 553.804 603.907 556.195L605.033 553.706C597.929 550.482 586.557 542.767 584.911 541.641 583.373 537.984 582.052 534.759 581.25 532.562 577.405 522.001 561.181 500.489 544.514 490.837 529.611 482.202 511.373 486.119 501.918 495.576 491.185 489.809 382.926 431.733 345.475 411.444 307.504 390.884 209.609 330.363 202.581 326.013 199.05 316.512 195.66 308.807 194.1 306.264 184.169 290.055 173.523 278.379 153.834 274.061 143.426 271.778 136.039 273.217 130.755 275.836 112.625 266.833 36.7261 212.241 35.9573 211.679L34.3543 213.897C37.4299 216.115 107.253 266.346 127.949 277.47 124.375 279.818 121.971 282.588 120.303 284.525 115.884 289.665 115.397 302.802 115.484 309.814L14.2208 236.545C15.228 230.367 12.8562 225.595 10.5385 220.985 9.5747 219.048 8.56754 217.046 7.83086 214.936 5.36153 207.956 5.18855 203.065 5.69737 197.871 5.92487 195.447 8.09086 193.998 8.21003 193.911L24.2603 182.43C24.0982 190.524 23.9465 197.579 23.9465 197.579L24.6503 197.59 24.4878 197.795 34.831 205.933 35.654 204.721C41.4156 196.27 41.5131 185.568 39.6934 178.383 38.145 172.28 32.4916 167.118 28.6793 164.586 28.701 162.638 28.7226 161.037 28.7226 159.998 28.7226 155.15 30.7586 150.714 40.2243 143.366 43.5491 144.524 50.2966 147.219 57.8451 152.25 67.3432 158.57 94.4621 175.191 106.051 182.278L109.884 184.626 111.314 182.3 107.48 179.941C96.9098 173.47 68.8162 156.265 59.3614 149.967 52.6576 145.498 46.6251 142.825 42.8344 141.386 43.0186 141.256 43.1486 141.148 43.3324 141.018 57.4121 130.857 129.152 79.3606 157.96 63.9624 185.642 49.1704 270.346 9.56571 278.923 5.57266 298.05 7.92079 354.898 32.8522 367.277 38.3603 347.035 46.6166 283.515 74.8808 264.313 86.3941 243.79 98.6976 205.017 119.214 179.48 134.244 153.942 149.285 112.895 187.104 112.895 187.104 114.715 187.559 216.433 166.134 244.711 165.69 244.711 165.69 285.768 129.234 339.584 97.7888 386.652 70.2928 421.861 58.13 436.06 54.44 443.078 57.0696 449.825 59.8939 454.644 62.3933 468.28 69.4377 536.749 107.971 563.521 123.835 589.979 139.514 637.892 176.814 638.434 177.236 647.596 183.977 690.333 218.16 731.672 251.229 772.253 283.692 810.57 314.348 816.365 318.427 826.556 325.623 866.996 366.245 882.234 381.545L886.479 385.809C888.916 388.244 891.266 391.934 893.508 396.803 892.988 398.902 891.277 400.828 888.396 402.527 886.566 403.609 883.783 405.416 880.512 407.592 845.53 357.058 735.376 277.07 734.249 276.258L732.646 278.476C733.773 279.288 843.537 358.995 878.237 409.128 866.422 417.082 849.992 428.692 845.844 431.625 845.476 431.095 845.032 430.618 844.491 430.261 832.209 417.373 792.754 383.537 771.603 369.589L766.285 366.115C759.061 361.418 749.271 355.121 738.863 348.455L737.39 350.76C747.787 357.415 757.578 363.713 764.791 368.398L770.097 371.861C790.134 385.073 826.621 416.162 840.516 430.099 839.368 430.553 838.122 431.268 836.617 432.198L835.371 432.945C830.119 436.105 784.805 461.815 779.639 464.715 777.809 465.754 771.116 469.628 762.798 474.443 746.13 484.106 723.311 497.319 719.477 499.288L718.643 499.721C713.856 502.166 710 504.168 710.271 509.254 699.224 497.232 658.232 461.945 636.495 447.618 630.452 443.636 620.867 437.446 610.102 430.553L608.629 432.847C619.383 439.74 628.957 445.919 634.99 449.901 656.715 464.217 697.74 499.537 708.376 511.234L658.058 536.285C647.986 524.966 605.835 488.597 583.676 473.989 561.799 459.564 492.442 415.632 491.738 415.188L490.276 417.493C490.969 417.936 560.315 461.869 582.171 476.272 603.301 490.198 642.777 524.068 654.712 536.674 651.863 536.707 647.271 536.728 642.149 536.566 636.235 536.339 628.08 537.973 623.011 543.004 619.676 546.327 618.041 550.666 618.192 555.6 617.748 557.764 618.311 562.287 623.575 563.932 625.059 564.397 626.705 565.144 628.427 565.945 632.098 567.622 636.159 569.472 640.438 569.472 641.521 569.472 642.614 569.353 643.719 569.083L645.549 568.639C652.221 567.038 654.723 566.432 661.459 563.229 667.892 560.166 706.935 541.76 715.026 537.951 715.069 538.027 715.08 538.103 715.134 538.179 715.534 538.698 716.325 539.325 717.841 539.325 719.466 539.325 721.697 538.644 724.686 537.215 733.686 532.93 787.523 506.051 797.184 499.147 802.014 495.706 813.408 488.727 823.447 482.559 833.79 476.229 842.714 470.753 844.815 469.011 848.974 465.548 850.101 464.131 850.101 460.787 850.101 460.711 850.101 460.571 850.101 460.473 853.285 458.223 870.05 446.406 876.18 442.262 886.512 435.293 897.32 427.773 899.162 424.753 899.985 423.401 901.057 421.67 902.01 420.133 904.837 423.78 911.519 428.194 911.595 428.238 913.111 429.179 916.132 436.137 916.49 438.907 916.577 439.524 916.642 442.262 914.259 451.762Z" fill="#FFFFFF" fill-rule="evenodd" transform="matrix(-1 0 0 1 1375 1238)"/><path d="M14.4779 0C12.3158 0 10.3156 0.462275 8.53195 1.37572 2.80229 4.28805-0.224933 11.4458 0.0129769 21.5162 0.240073 31.2426 3.48322 42.6346 9.13718 53.6077 18.9643 72.6839 33.9159 85.9999 45.4725 85.9999 47.6346 85.9999 49.6237 85.538 51.4185 84.635 63.0941 78.6809 62.8237 55.7464 50.8021 32.4033 40.9645 13.3268 26.0346 0 14.4779 0ZM50.1644 82.2168C48.7697 82.9263 47.1912 83.2915 45.4617 83.2915 35.051 83.2915 20.7915 70.2873 11.5588 52.3718 6.08869 41.7534 2.95369 30.7803 2.73741 21.4517 2.52112 12.4882 5.01846 6.21204 9.7644 3.79388 11.1591 3.08434 12.748 2.71918 14.4671 2.71918 24.867 2.71918 39.1156 15.7234 48.348 33.6389 59.3102 54.8863 60.1317 77.1336 50.1644 82.2168Z" fill="#FFFFFF" fill-rule="evenodd" transform="matrix(-1 0 0 1 1242 1531)"/><path d="M14.4773 0C12.3261 0 10.3259 0.46765 8.5316 1.39171 2.80217 4.33791-0.224924 11.5789 0.0129764 21.7664 0.240063 31.595 3.48307 43.1304 9.1368 54.2311 18.9635 73.5291 33.9144 87 45.4706 87 47.6218 87 49.6216 86.5323 51.4163 85.6191 63.1022 79.5959 62.8211 56.3837 50.7891 32.7801 40.9736 13.4709 26.0443 0 14.4773 0ZM50.1731 83.1729C48.7785 83.8906 47.1893 84.26 45.4706 84.26 35.0603 84.26 20.8015 71.1155 11.5583 52.9808 6.08844 42.2498 2.96438 31.1382 2.7481 21.712 2.53183 12.6334 5.02906 6.29515 9.7748 3.84887 11.1694 3.12021 12.7475 2.76167 14.4665 2.76167 24.8768 2.76167 39.1248 15.9171 48.3568 34.0413 59.3185 55.5141 60.1512 78.0196 50.1731 83.1729Z" fill="#FFFFFF" fill-rule="evenodd" transform="matrix(-1 0 0 1 861 1750)"/><path d="M108.219 50.7198C128.751 62.2591 149.989 74.1957 160.83 88L163.001 86.3364C151.812 72.1026 130.335 60.0264 109.575 48.3582 105.961 46.3188 102.358 44.3005 98.8314 42.2718 75.293 28.7682 1.73652 0.289915 0.998348 0L0 2.52262C0.737815 2.81254 74.0883 31.2156 97.4531 44.6119 100.98 46.6513 104.594 48.6803 108.219 50.7198Z" fill="#FFFFFF" fill-rule="evenodd" transform="matrix(-1 0 0 1 1115 1404)"/><path d="M2.8428 0.454116C-0.835574 2.33476-0.957853 8.93279 2.55415 15.7868 5.37658 21.2948 9.61077 25.0001 13.1113 25.0001 13.8446 25.0001 14.5338 24.8443 15.1671 24.5215 18.8343 22.6301 18.9566 16.0317 15.445 9.17766 12.0334 2.51248 6.44337-1.38164 2.8428 0.454116ZM13.8779 22.0179C12.1334 22.8972 7.98816 20.2378 5.05457 14.5076 2.26513 9.05523 2.26513 3.91452 4.13192 2.95769 4.36537 2.83525 4.60992 2.7796 4.89895 2.7796 6.89914 2.7796 10.3885 5.48352 12.9445 10.4573 15.734 15.9204 15.734 21.0611 13.8779 22.0179Z" fill="#FFFFFF" fill-rule="evenodd" transform="matrix(-1 0 0 1 840 1781)"/><path d="M2.68135 0.43595C-0.782599 2.24137-0.908249 8.57547 2.4087 15.1553 5.07465 20.443 9.07409 24.0001 12.3805 24.0001 13.0732 24.0001 13.7242 23.8505 14.3223 23.5406 17.7863 21.7355 17.9018 15.4011 14.5953 8.81054 11.3624 2.41197 6.07179-1.32637 2.68135 0.43595ZM13.1047 21.1372C11.4569 21.992 7.54144 19.4176 4.7705 13.9273 2.1357 8.69301 2.1357 3.75794 3.899 2.83938 4.1195 2.73253 4.3505 2.66842 4.6235 2.66842 6.51279 2.66842 9.81924 5.25349 12.223 10.039 14.8578 15.2836 14.8578 20.2186 13.1047 21.1372Z" fill="#FFFFFF" fill-rule="evenodd" transform="matrix(-1 0 0 1 1221 1562)"/></g></svg>