<svg width="608" height="518" xmlns="http://www.w3.org/2000/svg" xmlns:xlink="http://www.w3.org/1999/xlink" xml:space="preserve" overflow="hidden"><defs><clipPath id="clip0"><rect x="2464" y="1279" width="608" height="518"/></clipPath></defs><g clip-path="url(#clip0)" transform="translate(-2464 -1279)"><path d="M3060.74 1279 2655.41 1279C2651.98 1279 2648.75 1280.55 2646.61 1283.22L2466.47 1508.44C2464.87 1510.44 2464 1512.92 2464 1515.48L2464 1785.74C2464 1791.97 2469.04 1797 2475.26 1797L3060.74 1797C3066.97 1797 3072 1791.97 3072 1785.74L3072 1290.26C3072 1284.04 3066.97 1279 3060.74 1279ZM3049.48 1774.48 2486.52 1774.48 2486.52 1519.43 2660.81 1301.52 3049.48 1301.52 3049.48 1774.48Z" fill="#FFFFFF" fill-rule="evenodd"/><path d="M2533.18 1519.79C2535.09 1523.6 2538.99 1526 2543.25 1526L3015.75 1526C3021.97 1526 3027 1520.97 3027 1514.78L3027 1335.22C3027 1329.03 3021.97 1324 3015.75 1324L2678.25 1324C2674.71 1324 2671.38 1325.66 2669.25 1328.49L2534.25 1508.04C2531.7 1511.44 2531.28 1515.99 2533.18 1519.79ZM2683.88 1346.44 3004.5 1346.44 3004.5 1503.56 2565.75 1503.56 2683.88 1346.44Z" fill="#FFFFFF" fill-rule="evenodd"/><path d="M2993.71 1549C2987.47 1549 2982.43 1554.03 2982.43 1560.25L2982.43 1571.5 2869.57 1571.5 2869.57 1560.25C2869.57 1554.03 2864.53 1549 2858.29 1549 2852.05 1549 2847 1554.03 2847 1560.25L2847 1582.75C2847 1588.97 2852.05 1594 2858.29 1594L2993.71 1594C2999.96 1594 3005 1588.97 3005 1582.75L3005 1560.25C3005 1554.03 2999.96 1549 2993.71 1549Z" fill="#FFFFFF" fill-rule="evenodd"/><path d="M2956.21 1372.3C2951.81 1367.9 2944.7 1367.9 2940.3 1372.3 2935.9 1376.7 2935.9 1383.81 2940.3 1388.21L2962.8 1410.7C2964.99 1412.9 2967.87 1414 2970.75 1414 2973.63 1414 2976.51 1412.9 2978.7 1410.7 2983.1 1406.31 2983.1 1399.2 2978.7 1394.8L2956.21 1372.3Z" fill="#FFFFFF" fill-rule="evenodd"/><path d="M2911.7 1394.8 2889.21 1372.3C2884.81 1367.9 2877.7 1367.9 2873.3 1372.3 2868.9 1376.7 2868.9 1383.81 2873.3 1388.21L2895.8 1410.7C2897.99 1412.9 2900.87 1414 2903.75 1414 2906.63 1414 2909.51 1412.9 2911.7 1410.7 2916.1 1406.31 2916.1 1399.2 2911.7 1394.8Z" fill="#FFFFFF" fill-rule="evenodd"/><path d="M2934.06 1417.27C2929.7 1412.91 2922.64 1412.91 2918.27 1417.27 2913.91 1421.64 2913.91 1428.7 2918.27 1433.06L2962.94 1477.73C2965.12 1479.91 2967.97 1481 2970.83 1481 2973.69 1481 2976.55 1479.91 2978.73 1477.73 2983.09 1473.36 2983.09 1466.3 2978.73 1461.94L2934.06 1417.27Z" fill="#FFFFFF" fill-rule="evenodd"/></g></svg>