<svg width="608" height="420" xmlns="http://www.w3.org/2000/svg" xmlns:xlink="http://www.w3.org/1999/xlink" xml:space="preserve" overflow="hidden"><defs><clipPath id="clip0"><rect x="2464" y="769" width="608" height="420"/></clipPath></defs><g clip-path="url(#clip0)" transform="translate(-2464 -769)"><path d="M2464 834.172 2464 1123.83C2464 1159.82 2493.17 1189 2529.14 1189L3006.86 1189C3042.83 1189 3072 1159.82 3072 1123.83L3072 834.172C3072 798.178 3042.83 769 3006.86 769L2529.14 769C2493.17 769 2464 798.178 2464 834.172ZM3006.86 1145.55 2529.14 1145.55C2517.15 1145.55 2507.43 1135.83 2507.43 1123.83L2507.43 913.828 3028.57 913.828 3028.57 1123.83C3028.57 1135.83 3018.85 1145.55 3006.86 1145.55ZM3028.57 834.172 3028.57 870.379 2507.43 870.379 2507.43 834.172C2507.43 822.174 2517.15 812.448 2529.14 812.448L3006.86 812.448C3018.85 812.448 3028.57 822.174 3028.57 834.172Z" fill="#FFFFFF" fill-rule="evenodd"/><path d="M2673.34 951 2558.66 951C2546.7 951 2537 960.699 2537 972.664L2537 1087.34C2537 1099.3 2546.7 1109 2558.66 1109L2673.34 1109C2685.3 1109 2695 1099.3 2695 1087.34L2695 972.664C2695 960.699 2685.3 951 2673.34 951ZM2651.67 1065.67 2580.33 1065.67 2580.33 994.327 2651.6 994.327Z" fill="#FFFFFF" fill-rule="evenodd"/><path d="M2970.33 1044 2761.67 1044C2749.7 1044 2740 1053.63 2740 1065.5 2740 1077.37 2749.7 1087 2761.67 1087L2970.33 1087C2982.3 1087 2992 1077.37 2992 1065.5 2992 1053.63 2982.3 1044 2970.33 1044Z" fill="#FFFFFF" fill-rule="evenodd"/><path d="M2970.33 972 2761.67 972C2749.7 972 2740 981.849 2740 994 2740 1006.15 2749.7 1016 2761.67 1016L2970.33 1016C2982.3 1016 2992 1006.15 2992 994 2992 981.849 2982.3 972 2970.33 972Z" fill="#FFFFFF" fill-rule="evenodd"/></g></svg>