<svg xmlns="http://www.w3.org/2000/svg" class="ionicon" viewBox="0 0 512 512"><path d="M2523.25 1886.99C2512.98 1887.03 2504.36 1894.71 2503.18 1904.87L2464.15 2228.3C2462.77 2239.38 2470.66 2249.47 2481.77 2250.84 2482.62 2250.94 2483.48 2251 2484.34 2250.99L3051.8 2250.99C3062.99 2250.95 3072.03 2241.87 3071.99 2230.71 3071.99 2229.86 3071.93 2229.02 3071.83 2228.18L3029.79 1904.6C3028.47 1894.49 3019.82 1886.95 3009.6 1886.99L2523.25 1886.99ZM2541.34 1927.41 2747.8 1927.41 2747.8 1948.13 2727.61 1948.13C2716.41 1948.13 2707.33 1957.19 2707.33 1968.36 2707.33 1979.53 2716.41 1988.59 2727.61 1988.59L2808.4 1988.59C2819.61 1988.59 2828.69 1979.53 2828.69 1968.36 2828.69 1957.19 2819.61 1948.13 2808.4 1948.13L2788.33 1948.13 2788.33 1927.41 2991.79 1927.41 3028.76 2210.58 2507.1 2210.58 2541.34 1927.41ZM2826.65 2005.52C2825.95 2005.5 2825.25 2005.51 2824.55 2005.56 2819.31 2005.96 2814.42 2008.39 2810.93 2012.31L2695.27 2138.66C2687.5 2146.7 2687.73 2159.5 2695.79 2167.25 2703.85 2175 2716.69 2174.77 2724.46 2166.73 2724.72 2166.47 2724.96 2166.21 2725.2 2165.93L2840.86 2039.59C2848.54 2031.46 2848.15 2018.67 2840.01 2011.02 2836.38 2007.61 2831.63 2005.66 2826.65 2005.52ZM2626.75 2033.47C2620.77 2033.34 2615.03 2035.85 2611.08 2040.34L2553.17 2103.45C2545.61 2111.69 2546.17 2124.48 2554.44 2132.03 2562.7 2139.57 2575.53 2139 2583.1 2130.76L2640.97 2067.65C2648.71 2059.59 2648.43 2046.79 2640.34 2039.08 2636.67 2035.58 2631.83 2033.58 2626.75 2033.47ZM2971.32 2033.47C2965.32 2033.33 2959.57 2035.84 2955.61 2040.34L2897.7 2103.45C2890.14 2111.69 2890.7 2124.48 2898.97 2132.03 2907.23 2139.57 2920.06 2139 2927.62 2130.76L2985.53 2067.65C2993.27 2059.59 2992.99 2046.79 2984.91 2039.08 2981.24 2035.58 2976.39 2033.58 2971.32 2033.47Z"/></svg>