<svg width="401" height="518" xmlns="http://www.w3.org/2000/svg" xmlns:xlink="http://www.w3.org/1999/xlink" xml:space="preserve" overflow="hidden"><defs><clipPath id="clip0"><rect x="3165" y="1273" width="401" height="518"/></clipPath></defs><g clip-path="url(#clip0)" transform="translate(-3165 -1273)"><path d="M3175.36 1791 3554.64 1791C3560.34 1791 3565 1786.34 3565 1780.64L3565 1357.54C3565 1357.33 3564.9 1357.12 3564.9 1356.92 3564.79 1355.98 3564.69 1355.15 3564.38 1354.22 3564.28 1353.91 3564.17 1353.6 3564.07 1353.29 3563.55 1352.15 3562.93 1351.11 3562 1350.29L3487.84 1276.11C3486.91 1275.18 3485.87 1274.55 3484.83 1274.04 3484.52 1273.93 3484.21 1273.83 3483.8 1273.73 3482.97 1273.41 3482.04 1273.31 3481.21 1273.21 3480.9 1273.1 3480.69 1273 3480.49 1273L3175.36 1273C3169.66 1273 3165 1277.66 3165 1283.36L3165 1780.64C3165 1786.34 3169.66 1791 3175.36 1791ZM3490.84 1308.33 3510.21 1327.7 3529.58 1347.07 3490.74 1347.07 3490.74 1308.33ZM3185.71 1293.72 3470.13 1293.72 3470.13 1357.54C3470.13 1363.24 3474.79 1367.9 3480.49 1367.9L3544.29 1367.9 3544.29 1770.28 3185.71 1770.28 3185.71 1293.72Z" fill="#FFFFFF" fill-rule="evenodd"/><path d="M3365 1480.66C3352.16 1480.66 3341.71 1470.17 3341.71 1457.28 3341.71 1451.56 3337.05 1446.89 3331.35 1446.89 3325.66 1446.89 3321 1451.56 3321 1457.28 3321 1478.06 3335.39 1495.32 3354.65 1500.1L3354.65 1505.61C3354.65 1511.32 3359.31 1516 3365 1516 3370.69 1516 3375.35 1511.32 3375.35 1505.61L3375.35 1500.1C3394.61 1495.42 3409 1478.06 3409 1457.28 3409 1431.19 3389.43 1420.9 3368.31 1413.63 3344.81 1405.62 3341.71 1397 3341.71 1389.72 3341.71 1376.83 3352.16 1366.34 3365 1366.34 3377.84 1366.34 3388.3 1376.83 3388.3 1389.72 3388.3 1395.44 3392.95 1400.11 3398.65 1400.11 3404.34 1400.11 3409 1395.44 3409 1389.72 3409 1368.94 3394.61 1351.68 3375.35 1346.9L3375.35 1341.39C3375.35 1335.68 3370.69 1331 3365 1331 3359.31 1331 3354.65 1335.68 3354.65 1341.39L3354.65 1346.9C3335.39 1351.58 3321 1368.94 3321 1389.72 3321 1419.45 3351.64 1429.84 3361.69 1433.37 3384.15 1441.06 3388.3 1447.51 3388.3 1457.28 3388.3 1470.27 3377.84 1480.66 3365 1480.66Z" fill="#FFFFFF" fill-rule="evenodd"/><path d="M3494.64 1552 3234.36 1552C3228.66 1552 3224 1556.72 3224 1562.5 3224 1568.28 3228.66 1573 3234.36 1573L3494.64 1573C3500.34 1573 3505 1568.28 3505 1562.5 3505 1556.72 3500.34 1552 3494.64 1552Z" fill="#FFFFFF" fill-rule="evenodd"/><path d="M3494.64 1624 3234.36 1624C3228.66 1624 3224 1628.72 3224 1634.5 3224 1640.28 3228.66 1645 3234.36 1645L3494.64 1645C3500.34 1645 3505 1640.28 3505 1634.5 3505 1628.72 3500.34 1624 3494.64 1624Z" fill="#FFFFFF" fill-rule="evenodd"/><path d="M3494.64 1696 3234.36 1696C3228.66 1696 3224 1700.72 3224 1706.5 3224 1712.28 3228.66 1717 3234.36 1717L3494.64 1717C3500.34 1717 3505 1712.28 3505 1706.5 3505 1700.72 3500.34 1696 3494.64 1696Z" fill="#FFFFFF" fill-rule="evenodd"/></g></svg>